<?xml version="1.0" encoding="UTF-8"?>
<svg id="Layer_1" xmlns="http://www.w3.org/2000/svg" viewBox="0 0 1919.71 2025.72">
  <g>
    <polygon points="959.86 1859.51 835 1952.72 910 1924.72 888 2002.72 941 1928.72 949 2025.72 973 1927.72 1030 2006.72 1012 1924.72 1081 1951.72 959.86 1859.51"/>
    <path d="M1341.36,289.72c-146.17,0-279.68,54.24-381.5,143.67-101.82-89.44-235.33-143.67-381.5-143.67C258.94,289.72,0,548.66,0,868.08c0,7.53.14,15.03.43,22.49,4.62,348.43,136.43,666.16,351.11,908.89,76.54,99.67,196.91,163.93,332.29,163.93,105.74,0,202.33-39.2,276.02-103.86,73.69,64.66,170.28,103.86,276.02,103.86,135.38,0,255.75-64.25,332.29-163.93,214.68-242.73,346.5-560.46,351.11-908.89.29-7.46.43-14.96.43-22.49,0-319.42-258.94-578.36-578.36-578.36Z" style="fill: red;"/>
    <path d="M959.86,433.39S951,133.72,1265,.72l38,66s-252,67-343.14,366.67Z"/>
    <path d="M948.98,359.55c13.36-65.34-22.79-161.13-98.39-242.41C775.01,35.9,682.28-7.5,616.15,1.07l-.12-.13s-.02.1-.03.14c-.05,0-.1.01-.15.02l.12.13c-13.32,65.34,23.26,160.96,98.84,242.22,75.6,81.27,168.03,124.71,234.17,116.11" style="fill: #007a00;"/>
  </g>
  <g>
    <rect x="272.19" y="984.33" width="1375.62" height="182.77" style="fill: none;"/>
    <path d="M475.21,1059.63c0,18.11-3.6,34.15-10.8,48.13-8.93,17.44-21.67,26.17-38.2,26.17s-29.27-8.72-38.2-26.17c-7.2-13.85-10.8-29.89-10.8-48.13s3.53-34.75,10.6-49.13c9.07-17.98,21.87-26.97,38.4-26.97s29.27,9.06,38.2,27.16c7.2,14.25,10.8,30.56,10.8,48.94ZM458.21,1059.53c0-14-1.99-26.27-5.98-36.8-5.72-14.8-14.36-22.2-25.92-22.2s-20.34,7.33-25.92,22c-4.12,10.67-6.18,23-6.18,37s2.12,25.27,6.38,35.8c5.85,14.13,14.42,21.2,25.72,21.2s20.14-7.07,25.72-21.2c4.12-10.13,6.18-22.07,6.18-35.8Z"/>
    <path d="M537.41,1158.33c-5.73,0-8.6-3-8.6-9,0-16.4,1.33-31.33,4-44.8,2.4-12.4,6.13-23.27,11.2-32.6,1.87-3.2,8.6-13.4,20.2-30.6,7.47-11.07,13-22.6,16.6-34.6-4,.4-7.8.6-11.4.6-4.27,0-10.47-.63-18.6-1.9-8.13-1.27-14.27-1.9-18.4-1.9-4.4,0-7.93,1.07-10.6,3.2-2.4,2.8-4.87,5.6-7.4,8.4-.53,8.13-.87,12.54-1,13.2-1.2,5.2-4,7.8-8.4,7.8-2.67,0-4.8-.9-6.4-2.7-1.6-1.8-2.33-4.03-2.2-6.7l2.4-34.8c.4-5.6,3.33-8.4,8.8-8.4s8,2.27,8.4,6.8c3.73-2.8,8.67-4.2,14.8-4.2,4,0,10.03.7,18.1,2.1,8.07,1.4,14.17,2.1,18.3,2.1,6.27,0,13.93-1,23-3,1.33-.27,2.53-.4,3.6-.4,4.67,0,7,2.47,7,7.4,0,1.07-.13,2.2-.4,3.4-3.33,15.6-8.6,29.6-15.8,42-6.93,10.67-13.87,21.27-20.8,31.8-6.93,11.2-11.67,23.33-14.2,36.4-1.87,9.87-3,18.2-3.4,25,0,3.73-.13,9.4-.4,17-.4,5.6-3.2,8.4-8.4,8.4Z"/>
    <path d="M662.41,1114.93c0,5.73-2.07,10.7-6.2,14.9-4.13,4.2-9.07,6.3-14.8,6.3s-10.67-2.1-14.8-6.3c-4.13-4.2-6.2-9.17-6.2-14.9s2.07-10.67,6.2-14.8c4.13-4.13,9.07-6.2,14.8-6.2s10.67,2.07,14.8,6.2c4.13,4.13,6.2,9.07,6.2,14.8Z"/>
    <path d="M779.81,1132.33c-4.27,0-10.53-.9-18.8-2.7-8.27-1.8-14.47-2.7-18.6-2.7-6,0-11.6,1.22-16.8,3.67-1.2,1.15-2.8,1.73-4.8,1.73-2.4,0-4.93-.8-7.6-2.4-2.67-1.6-4-3.54-4-5.81,0-1.07.6-3.27,1.81-6.61,5.61-15.22,19.98-30.85,43.11-46.87,4.01-2.27,9.36-5.61,16.04-10.01,10.29-8.28,15.44-18.09,15.44-29.44,0-8.41-3.04-15.96-9.12-22.63-6.08-6.67-13.34-10.02-21.76-10.02-7.49,0-13.37,1.85-17.65,5.55-1.87,1.46-4.41,4.83-7.62,10.11-2.27,3.7-4.75,5.55-7.42,5.55-2.41,0-4.48-.8-6.22-2.4-1.74-1.6-2.61-3.6-2.61-6,0-1.07.2-2.13.6-3.2,2.8-8.27,8.27-14.87,16.4-19.8,7.6-4.53,16-6.8,25.2-6.8,13.07,0,24.2,4.99,33.4,14.98s13.8,21.57,13.8,34.74c0,17.17-7.53,31.55-22.6,43.13-2.8,1.47-6.87,3.73-12.2,6.79-16.93,10.12-28.47,19.84-34.6,29.16h6.2c4.67,0,11.03.9,19.1,2.7,8.07,1.8,13.97,2.7,17.7,2.7,6,0,10.93-1.07,14.8-3.2,1.73-1.07,4.07-3.07,7-6,2.13-2.13,4.07-3.2,5.8-3.2,2.27,0,4.33.83,6.2,2.5,1.87,1.67,2.8,3.63,2.8,5.9,0,1.47-.47,3-1.4,4.6-2.93,5.07-7.53,9.07-13.8,12-5.6,2.67-11.53,4-17.8,4Z"/>
    <path d="M936.2,1082.33c0,13.73-4.9,25.53-14.7,35.4-9.8,9.87-21.5,14.8-35.1,14.8-11.87,0-22.6-4.07-32.2-12.2-9.6-8.13-15.33-18.07-17.2-29.8-1.2-7.47-1.8-15.47-1.8-24,0-14.27,2.87-29.6,8.6-46,6.53-18.27,15.07-33.07,25.6-44.4,12.4-13.2,26.2-19.8,41.4-19.8,5.07,0,7.6,2.87,7.6,8.6,0,4.27-2.47,7.27-7.4,9-3.2.8-8,2.47-14.4,5-10.8,5.73-19.8,14.67-27,26.8-6.4,10.67-10.8,22.67-13.2,36,9.07-7.07,19.33-10.6,30.8-10.6,13.87,0,25.5,5.07,34.9,15.2,9.4,10.13,14.1,22.13,14.1,36ZM919.2,1082.33c0-9.2-3.07-17.13-9.2-23.8-6.13-6.67-13.73-10-22.8-10s-16.83,3.23-23.3,9.7-9.7,14.23-9.7,23.3,3.1,17.1,9.3,23.7c6.2,6.6,13.83,9.9,22.9,9.9s16.8-3.2,23.2-9.6c6.4-6.4,9.6-14.13,9.6-23.2Z"/>
    <path d="M1027.2,1114.93c0,5.73-2.07,10.7-6.2,14.9-4.13,4.2-9.07,6.3-14.8,6.3s-10.67-2.1-14.8-6.3c-4.13-4.2-6.2-9.17-6.2-14.9s2.07-10.67,6.2-14.8,9.07-6.2,14.8-6.2,10.67,2.07,14.8,6.2c4.13,4.13,6.2,9.07,6.2,14.8Z"/>
    <path d="M1144.6,1132.33c-4.27,0-10.53-.9-18.8-2.7-8.27-1.8-14.47-2.7-18.6-2.7-6,0-11.6,1.22-16.8,3.67-1.2,1.15-2.8,1.73-4.8,1.73-2.4,0-4.93-.8-7.6-2.4-2.67-1.6-4-3.54-4-5.81,0-1.07.6-3.27,1.81-6.61,5.61-15.22,19.98-30.85,43.11-46.87,4.01-2.27,9.36-5.61,16.04-10.01,10.29-8.28,15.44-18.09,15.44-29.44,0-8.41-3.04-15.96-9.12-22.63-6.08-6.67-13.34-10.02-21.76-10.02-7.49,0-13.37,1.85-17.65,5.55-1.87,1.46-4.41,4.83-7.62,10.11-2.27,3.7-4.75,5.55-7.42,5.55-2.41,0-4.48-.8-6.22-2.4-1.74-1.6-2.61-3.6-2.61-6,0-1.07.2-2.13.6-3.2,2.8-8.27,8.27-14.87,16.4-19.8,7.6-4.53,16-6.8,25.2-6.8,13.07,0,24.2,4.99,33.4,14.98s13.8,21.57,13.8,34.74c0,17.17-7.53,31.55-22.6,43.13-2.8,1.47-6.87,3.73-12.2,6.79-16.93,10.12-28.47,19.84-34.6,29.16h6.2c4.67,0,11.03.9,19.1,2.7,8.07,1.8,13.97,2.7,17.7,2.7,6,0,10.93-1.07,14.8-3.2,1.73-1.07,4.07-3.07,7-6,2.13-2.13,4.07-3.2,5.8-3.2,2.27,0,4.33.83,6.2,2.5,1.87,1.67,2.8,3.63,2.8,5.9,0,1.47-.47,3-1.4,4.6-2.93,5.07-7.53,9.07-13.8,12-5.6,2.67-11.53,4-17.8,4Z"/>
    <path d="M1298.4,1059.63c0,18.11-3.6,34.15-10.8,48.13-8.93,17.44-21.67,26.17-38.2,26.17s-29.27-8.72-38.2-26.17c-7.2-13.85-10.8-29.89-10.8-48.13s3.53-34.75,10.6-49.13c9.07-17.98,21.87-26.97,38.4-26.97s29.27,9.06,38.2,27.16c7.2,14.25,10.8,30.56,10.8,48.94ZM1281.4,1059.53c0-14-1.99-26.27-5.98-36.8-5.72-14.8-14.36-22.2-25.92-22.2s-20.34,7.33-25.92,22c-4.12,10.67-6.18,23-6.18,37s2.12,25.27,6.38,35.8c5.85,14.13,14.42,21.2,25.72,21.2s20.14-7.07,25.72-21.2c4.12-10.13,6.18-22.07,6.18-35.8Z"/>
    <path d="M1387.79,1132.33c-4.27,0-10.53-.9-18.8-2.7-8.27-1.8-14.47-2.7-18.6-2.7-6,0-11.6,1.22-16.8,3.67-1.2,1.15-2.8,1.73-4.8,1.73-2.4,0-4.93-.8-7.6-2.4-2.67-1.6-4-3.54-4-5.81,0-1.07.6-3.27,1.81-6.61,5.61-15.22,19.98-30.85,43.11-46.87,4.01-2.27,9.36-5.61,16.04-10.01,10.29-8.28,15.44-18.09,15.44-29.44,0-8.41-3.04-15.96-9.12-22.63-6.08-6.67-13.34-10.02-21.76-10.02-7.49,0-13.37,1.85-17.65,5.55-1.87,1.46-4.41,4.83-7.62,10.11-2.27,3.7-4.75,5.55-7.42,5.55-2.41,0-4.48-.8-6.22-2.4-1.74-1.6-2.61-3.6-2.61-6,0-1.07.2-2.13.6-3.2,2.8-8.27,8.27-14.87,16.4-19.8,7.6-4.53,16-6.8,25.2-6.8,13.07,0,24.2,4.99,33.4,14.98s13.8,21.57,13.8,34.74c0,17.17-7.53,31.55-22.6,43.13-2.8,1.47-6.87,3.73-12.2,6.79-16.93,10.12-28.47,19.84-34.6,29.16h6.2c4.67,0,11.03.9,19.1,2.7,8.07,1.8,13.97,2.7,17.7,2.7,6,0,10.93-1.07,14.8-3.2,1.73-1.07,4.07-3.07,7-6,2.13-2.13,4.07-3.2,5.8-3.2,2.27,0,4.33.83,6.2,2.5,1.87,1.67,2.8,3.63,2.8,5.9,0,1.47-.47,3-1.4,4.6-2.93,5.07-7.53,9.07-13.8,12-5.6,2.67-11.53,4-17.8,4Z"/>
    <path d="M1499.59,1009.93c-6.67,0-12.4-.87-17.2-2.6l-9.4,32.4c13.2.13,23.07.93,29.6,2.4,10.13,2.27,18.6,6.93,25.4,14,9.87,10.27,14.8,21.6,14.8,34,0,14.4-6.33,28.07-19,41-8.54,8.67-18.93,15-31.2,19-3.6,1.2-15.53,3.93-35.8,8.2-.67.13-1.33.2-2,.2-2.4,0-4.4-.93-6-2.8-1.6-1.87-2.4-4.07-2.4-6.6,0-4.13,2.13-6.73,6.4-7.8,10.4-2.13,20.87-4.27,31.4-6.4,10.67-2.8,19.87-8.2,27.6-16.2,8.8-9.07,13.2-18.47,13.2-28.2,0-8.27-3.3-15.97-9.9-23.1-6.6-7.13-18.3-10.7-35.1-10.7h-18.6c-6,0-9-2.32-9-6.96,0-2.52,2.47-11.73,7.4-27.64,3.2-9.94,6.33-19.82,9.4-29.63,1.33-4.38,3.33-6.56,6-6.56,1.47,0,4.23,1.4,8.3,4.2,4.07,2.8,8.97,4.2,14.7,4.2,10.93,0,20.53-3.47,28.8-10.4,2-1.6,3.87-2.4,5.6-2.4,2.27,0,4.3.93,6.1,2.8,1.8,1.87,2.7,4,2.7,6.4,0,2.13-.93,4.13-2.8,6-4.13,4.27-10.2,7.6-18.2,10-6.93,2.13-13.87,3.2-20.8,3.2Z"/>
  </g>
</svg>