<?xml version="1.0" encoding="UTF-8"?>
<svg id="Layer_1" xmlns="http://www.w3.org/2000/svg" viewBox="0 0 1919.71 2025.72">
  <polygon points="959.86 1859.51 835 1952.72 910 1924.72 888 2002.72 941 1928.72 949 2025.72 973 1927.72 1030 2006.72 1012 1924.72 1081 1951.72 959.86 1859.51"/>
  <path d="M1341.36,289.72c-146.17,0-279.68,54.24-381.5,143.67-101.82-89.44-235.33-143.67-381.5-143.67C258.94,289.72,0,548.66,0,868.08c0,7.53.14,15.03.43,22.49,4.62,348.43,136.43,666.16,351.11,908.89,76.54,99.67,196.91,163.93,332.29,163.93,105.74,0,202.33-39.2,276.02-103.86,73.69,64.66,170.28,103.86,276.02,103.86,135.38,0,255.75-64.25,332.29-163.93,214.68-242.73,346.5-560.46,351.11-908.89.29-7.46.43-14.96.43-22.49,0-319.42-258.94-578.36-578.36-578.36Z" style="fill: red;"/>
  <path d="M959.86,433.39S951,133.72,1265,.72l38,66s-252,67-343.14,366.67Z"/>
  <path d="M948.98,359.55c13.36-65.34-22.79-161.13-98.39-242.41C775.01,35.9,682.28-7.5,616.15,1.07l-.12-.13s-.02.1-.03.14c-.05,0-.1.01-.15.02l.12.13c-13.32,65.34,23.26,160.96,98.84,242.22,75.6,81.27,168.03,124.71,234.17,116.11" style="fill: #007a00;"/>
</svg>