<?xml version="1.0" encoding="UTF-8"?>
<svg id="Layer_1" xmlns="http://www.w3.org/2000/svg" viewBox="0 0 1919.71 2025.72">
  <g>
    <polygon points="959.86 1859.51 835 1952.72 910 1924.72 888 2002.72 941 1928.72 949 2025.72 973 1927.72 1030 2006.72 1012 1924.72 1081 1951.72 959.86 1859.51"/>
    <path d="M1341.36,289.72c-146.17,0-279.68,54.24-381.5,143.67-101.82-89.44-235.33-143.67-381.5-143.67C258.94,289.72,0,548.66,0,868.08c0,7.53.14,15.03.43,22.49,4.62,348.43,136.43,666.16,351.11,908.89,76.54,99.67,196.91,163.93,332.29,163.93,105.74,0,202.33-39.2,276.02-103.86,73.69,64.66,170.28,103.86,276.02,103.86,135.38,0,255.75-64.25,332.29-163.93,214.68-242.73,346.5-560.46,351.11-908.89.29-7.46.43-14.96.43-22.49,0-319.42-258.94-578.36-578.36-578.36Z" style="fill: red;"/>
    <path d="M959.86,433.39S951,133.72,1265,.72l38,66s-252,67-343.14,366.67Z"/>
    <path d="M948.98,359.55c13.36-65.34-22.79-161.13-98.39-242.41C775.01,35.9,682.28-7.5,616.15,1.07l-.12-.13s-.02.1-.03.14c-.05,0-.1.01-.15.02l.12.13c-13.32,65.34,23.26,160.96,98.84,242.22,75.6,81.27,168.03,124.71,234.17,116.11" style="fill: #007a00;"/>
  </g>
  <g>
    <rect x="92" y="1022.72" width="1740" height="206" style="fill: none;"/>
    <path d="M505.97,1110.02c0,29.73-4.76,53-14.28,69.82-9.52,16.82-22.65,25.23-39.38,25.23s-29.24-8.01-38.58-24.03c-9.34-16.02-14.02-38-14.02-65.95s4.98-51.13,14.95-68.49c9.97-17.35,23.05-26.03,39.25-26.03s28.48,8.14,37.91,24.43c9.43,16.29,14.15,37.96,14.15,65.01ZM407.98,1116.43c0,25.1,4.05,45.12,12.15,60.07,8.1,14.95,18.91,22.43,32.44,22.43,14.24,0,25.32-7.74,33.24-23.23,7.92-15.49,11.88-37.11,11.88-64.88,0-21.89-2.67-39.96-8.01-54.2-3.38-8.9-8.28-16.06-14.69-21.49-6.41-5.43-13.26-8.14-20.56-8.14-14.24,0-25.54,8.06-33.91,24.16-8.37,16.11-12.55,37.87-12.55,65.28Z"/>
    <path d="M611.43,1076.11c10.15-14.06,15.39-26.61,15.75-37.65-4.1,11.75-10.41,17.62-18.96,17.62-5.52,0-11.93-4.76-19.22-14.28-7.3-9.52-13.17-14.28-17.62-14.28-7.12,0-13.04,4.23-17.76,12.68-4.72,8.46-7.08,19-7.08,31.64,0,3.03.09,5.43.27,7.21v7.48c0,3.92-1.25,5.87-3.74,5.87s-3.74-1.96-3.74-5.87c0-2.49.09-5.16.27-8.01l.8-12.55c.35-7.48.53-11.39.53-11.75,0-4.09-.27-10.41-.8-18.96-.18-2.85-.27-4.89-.27-6.14,0-4.27,1.24-6.41,3.74-6.41s3.74,1.69,3.74,5.07c0,1.6-.18,3.65-.53,6.14v2.4c-.18,1.43-.27,2.58-.27,3.47v4.27c6.41-15.31,14.86-22.96,25.37-22.96,6.94,0,14.02,4.63,21.23,13.88,7.21,9.26,12.95,13.88,17.22,13.88,5.34,0,9.52-3.74,12.55-11.21.35-.89.53-1.6.53-2.14,0-.89-.63-1.69-1.87-2.4-1.78-1.07-2.67-2.76-2.67-5.07,0-4.98,2.14-7.48,6.41-7.48,5.34,0,8.01,4.54,8.01,13.62,0,15.67-5.87,31.33-17.62,46.99l-13.35,17.89c-8.9,11.93-15.13,25.63-18.69,41.12-2.32,10.15-3.47,21.89-3.47,35.24v8.28l.27,12.55c.18,4.63-1.25,6.94-4.27,6.94-2.85,0-4.27-2.22-4.27-6.67v-5.34c-.18-1.42-.27-3.47-.27-6.14,0-18.33,1.69-33.91,5.07-46.73,4.09-15.31,11.57-30.44,22.43-45.39l12.28-16.82Z"/>
    <path d="M656.29,1191.73c0,3.92-.98,7.17-2.94,9.75-1.96,2.58-4.45,3.87-7.48,3.87-2.85,0-5.25-1.25-7.21-3.74-1.96-2.49-2.94-5.43-2.94-8.81,0-8.9,3.38-13.35,10.15-13.35,3.02,0,5.52,1.2,7.48,3.6,1.96,2.4,2.94,5.3,2.94,8.68Z"/>
    <path d="M696.87,1181.04c0,.18.09.71.27,1.6v2.14c4.81-12.64,12.9-18.96,24.3-18.96,5.52,0,10.55,1.56,15.09,4.67,4.54,3.12,10.45,9.12,17.76,18.02,5.69,6.94,10.95,10.41,15.75,10.41,5.52,0,10.01-2.76,13.48-8.28,3.47-5.51,5.21-12.55,5.21-21.09,0-7.12-.98-10.68-2.94-10.68-.36,0-.71.18-1.07.53l-1.07,1.07c-.71.71-1.87,1.07-3.47,1.07-3.92,0-5.87-2.31-5.87-6.94,0-2.14.8-4,2.4-5.61,1.6-1.6,3.47-2.4,5.61-2.4,3.56,0,6.67,2.32,9.34,6.94,2.67,4.63,4.01,10.15,4.01,16.55,0,9.97-2.54,18.29-7.61,24.96-5.07,6.68-11.35,10.01-18.82,10.01s-13.8-3.47-20.02-10.41l-6.41-7.21c-8.01-9.08-15.4-13.62-22.16-13.62-9.08,0-15.67,4.54-19.76,13.62-.36,1.07-.53,1.78-.53,2.14,0,.53.53.98,1.6,1.34,3.74,1.07,5.61,3.38,5.61,6.94,0,4.81-2.23,7.21-6.67,7.21-6.94,0-10.41-6.67-10.41-20.02,0-30.26,15.13-52.15,45.39-65.68l20.02-9.08c4.81-2.14,9.25-5.51,13.35-10.15,7.12-8.01,10.68-18.24,10.68-30.71s-3.38-23.32-10.15-30.97c-6.77-7.65-15.75-11.48-26.97-11.48s-21.45,3.92-29.64,11.75c-8.19,7.83-12.28,17.45-12.28,28.84,0,2.85.35,4.27,1.07,4.27,1.96-.89,3.38-1.33,4.27-1.33,4.63,0,6.94,2.85,6.94,8.54,0,6.59-3.03,9.88-9.08,9.88-7.12,0-10.68-6.32-10.68-18.96,0-13.88,4.71-25.59,14.15-35.11,9.43-9.52,21.18-14.29,35.24-14.29s24.7,4.54,32.97,13.62,12.42,21.09,12.42,36.04-3.83,25.54-11.48,33.91c-4.27,4.63-8.19,7.97-11.75,10.01-3.56,2.05-12.02,5.83-25.37,11.35-15.84,6.41-26.93,14.68-33.24,24.83-6.32,10.15-9.48,20.38-9.48,30.7Z"/>
    <path d="M834.11,1132.72c0,3.74.09,7.3.27,10.68,2.14-17.62,6.58-30.44,13.35-38.45,8.72-10.32,19.93-15.49,33.64-15.49s24.47,5.07,32.84,15.22c8.36,10.15,12.55,23.5,12.55,40.05s-4.58,31.64-13.75,43.12c-9.17,11.48-20.69,17.22-34.58,17.22-16.02,0-28.7-7.52-38.05-22.56-9.34-15.04-14.02-35.46-14.02-61.28,0-30.26,5.29-54.6,15.89-73.02,10.59-18.42,24.61-27.63,42.05-27.63,10.32,0,19.27,3.83,26.83,11.48,7.56,7.66,11.35,16.65,11.35,26.97,0,11.75-3.92,17.62-11.75,17.62-5.16,0-7.74-2.94-7.74-8.81,0-5.16,2.22-7.74,6.67-7.74h.8c.53.18,1.07.27,1.6.27,1.24,0,1.87-1.16,1.87-3.47,0-7.83-2.98-14.77-8.94-20.83-5.97-6.05-12.77-9.08-20.43-9.08-8.37,0-16.2,2.98-23.5,8.94-7.3,5.97-12.73,13.84-16.29,23.63-7.12,19.76-10.68,44.15-10.68,73.16ZM839.45,1149.81c0,14.42,3.6,26.21,10.81,35.38,7.21,9.17,16.51,13.75,27.9,13.75s21.63-5.07,29.1-15.22c7.48-10.15,11.21-23.4,11.21-39.78,0-14.59-3.38-26.25-10.15-34.98-6.77-8.72-15.84-13.08-27.23-13.08-12.28,0-22.29,4.99-30.04,14.95-7.74,9.97-11.61,22.96-11.61,38.98Z"/>
    <path d="M983.89,1191.73c0,3.92-.98,7.17-2.94,9.75-1.96,2.58-4.45,3.87-7.48,3.87-2.85,0-5.25-1.25-7.21-3.74-1.96-2.49-2.94-5.43-2.94-8.81,0-8.9,3.38-13.35,10.15-13.35,3.02,0,5.52,1.2,7.48,3.6,1.96,2.4,2.94,5.3,2.94,8.68Z"/>
    <path d="M1024.48,1181.04c0,.18.09.71.27,1.6v2.14c4.81-12.64,12.9-18.96,24.3-18.96,5.52,0,10.55,1.56,15.09,4.67,4.54,3.12,10.45,9.12,17.75,18.02,5.69,6.94,10.95,10.41,15.75,10.41,5.52,0,10.01-2.76,13.48-8.28,3.47-5.51,5.21-12.55,5.21-21.09,0-7.12-.98-10.68-2.94-10.68-.36,0-.71.18-1.07.53l-1.07,1.07c-.71.71-1.87,1.07-3.47,1.07-3.92,0-5.87-2.31-5.87-6.94,0-2.14.8-4,2.4-5.61,1.6-1.6,3.47-2.4,5.61-2.4,3.56,0,6.67,2.32,9.34,6.94,2.67,4.63,4,10.15,4,16.55,0,9.97-2.54,18.29-7.61,24.96-5.07,6.68-11.35,10.01-18.82,10.01s-13.8-3.47-20.03-10.41l-6.41-7.21c-8.01-9.08-15.4-13.62-22.16-13.62-9.08,0-15.67,4.54-19.76,13.62-.36,1.07-.53,1.78-.53,2.14,0,.53.53.98,1.6,1.34,3.74,1.07,5.61,3.38,5.61,6.94,0,4.81-2.23,7.21-6.67,7.21-6.94,0-10.41-6.67-10.41-20.02,0-30.26,15.13-52.15,45.39-65.68l20.03-9.08c4.81-2.14,9.25-5.51,13.35-10.15,7.12-8.01,10.68-18.24,10.68-30.71s-3.38-23.32-10.15-30.97c-6.77-7.65-15.75-11.48-26.97-11.48s-21.45,3.92-29.64,11.75c-8.19,7.83-12.28,17.45-12.28,28.84,0,2.85.35,4.27,1.07,4.27,1.96-.89,3.38-1.33,4.27-1.33,4.63,0,6.94,2.85,6.94,8.54,0,6.59-3.03,9.88-9.08,9.88-7.12,0-10.68-6.32-10.68-18.96,0-13.88,4.71-25.59,14.15-35.11,9.43-9.52,21.18-14.29,35.24-14.29s24.7,4.54,32.97,13.62c8.28,9.08,12.42,21.09,12.42,36.04s-3.83,25.54-11.48,33.91c-4.27,4.63-8.19,7.97-11.75,10.01-3.56,2.05-12.01,5.83-25.36,11.35-15.84,6.41-26.93,14.68-33.24,24.83-6.32,10.15-9.48,20.38-9.48,30.7Z"/>
    <path d="M1257.3,1110.02c0,29.73-4.76,53-14.28,69.82-9.52,16.82-22.65,25.23-39.38,25.23s-29.24-8.01-38.58-24.03c-9.35-16.02-14.02-38-14.02-65.95s4.98-51.13,14.95-68.49c9.97-17.35,23.05-26.03,39.25-26.03s28.48,8.14,37.91,24.43c9.43,16.29,14.15,37.96,14.15,65.01ZM1159.31,1116.43c0,25.1,4.05,45.12,12.15,60.07,8.1,14.95,18.91,22.43,32.44,22.43,14.24,0,25.32-7.74,33.24-23.23,7.92-15.49,11.88-37.11,11.88-64.88,0-21.89-2.67-39.96-8.01-54.2-3.38-8.9-8.28-16.06-14.68-21.49-6.41-5.43-13.26-8.14-20.56-8.14-14.24,0-25.54,8.06-33.91,24.16-8.37,16.11-12.55,37.87-12.55,65.28Z"/>
    <path d="M1291.48,1181.04c0,.18.09.71.27,1.6v2.14c4.81-12.64,12.9-18.96,24.3-18.96,5.52,0,10.55,1.56,15.09,4.67,4.54,3.12,10.45,9.12,17.75,18.02,5.69,6.94,10.95,10.41,15.75,10.41,5.52,0,10.01-2.76,13.48-8.28,3.47-5.51,5.21-12.55,5.21-21.09,0-7.12-.98-10.68-2.94-10.68-.36,0-.71.18-1.07.53l-1.07,1.07c-.71.71-1.87,1.07-3.47,1.07-3.92,0-5.87-2.31-5.87-6.94,0-2.14.8-4,2.4-5.61,1.6-1.6,3.47-2.4,5.61-2.4,3.56,0,6.67,2.32,9.34,6.94,2.67,4.63,4,10.15,4,16.55,0,9.97-2.54,18.29-7.61,24.96-5.07,6.68-11.35,10.01-18.82,10.01s-13.8-3.47-20.03-10.41l-6.41-7.21c-8.01-9.08-15.4-13.62-22.16-13.62-9.08,0-15.67,4.54-19.76,13.62-.36,1.07-.53,1.78-.53,2.14,0,.53.53.98,1.6,1.34,3.74,1.07,5.61,3.38,5.61,6.94,0,4.81-2.23,7.21-6.67,7.21-6.94,0-10.41-6.67-10.41-20.02,0-30.26,15.13-52.15,45.39-65.68l20.03-9.08c4.81-2.14,9.25-5.51,13.35-10.15,7.12-8.01,10.68-18.24,10.68-30.71s-3.38-23.32-10.15-30.97c-6.77-7.65-15.75-11.48-26.97-11.48s-21.45,3.92-29.64,11.75c-8.19,7.83-12.28,17.45-12.28,28.84,0,2.85.35,4.27,1.07,4.27,1.96-.89,3.38-1.33,4.27-1.33,4.63,0,6.94,2.85,6.94,8.54,0,6.59-3.03,9.88-9.08,9.88-7.12,0-10.68-6.32-10.68-18.96,0-13.88,4.71-25.59,14.15-35.11,9.43-9.52,21.18-14.29,35.24-14.29s24.7,4.54,32.97,13.62c8.28,9.08,12.42,21.09,12.42,36.04s-3.83,25.54-11.48,33.91c-4.27,4.63-8.19,7.97-11.75,10.01-3.56,2.05-12.01,5.83-25.36,11.35-15.84,6.41-26.93,14.68-33.24,24.83-6.32,10.15-9.48,20.38-9.48,30.7Z"/>
    <path d="M1489.59,1031.79h-47.26l-8.01,79.3c10.5-16.38,23.85-24.56,40.05-24.56,13.7,0,24.79,5.25,33.24,15.75,8.45,10.5,12.68,24.12,12.68,40.85,0,17.8-4.85,32.53-14.55,44.19-9.7,11.66-21.94,17.49-36.71,17.49-12.64,0-23.63-4.58-32.97-13.75-9.34-9.17-14.02-19.89-14.02-32.17,0-6.23,1.24-11.3,3.74-15.22,2.49-3.91,5.78-5.87,9.88-5.87,5.51,0,8.28,2.94,8.28,8.81s-2.49,9.08-7.48,9.08c-.89,0-1.78-.27-2.67-.8l-1.6-.8c-.18-.17-.36-.27-.53-.27-1.6,0-2.4,2.14-2.4,6.41,0,10.5,3.91,19.54,11.75,27.1,7.83,7.57,17.18,11.35,28.04,11.35,12.82,0,23.18-5.21,31.11-15.62,7.92-10.41,11.88-23.98,11.88-40.72,0-14.95-3.56-26.97-10.68-36.04-7.12-9.08-16.55-13.62-28.3-13.62-14.06,0-25.9,7.3-35.51,21.89-1.96,2.85-3.83,4.27-5.61,4.27-2.85,0-4.27-1.6-4.27-4.81,0,.89.09.18.27-2.14l.27-3.47,7.21-76.63c.35-3.38.89-5.47,1.6-6.27.71-.8,2.49-1.2,5.34-1.2h32.84c1.78.18,3.02.27,3.74.27,1.78,0,4.94-.09,9.48-.27,4.54-.17,8.85-.27,12.95-.27h.8c2.85,0,4.67.53,5.47,1.6s1.38,3.65,1.74,7.74c0,3.03.71,8.1,2.14,15.22.53,1.6.8,2.94.8,4,0,2.67-1.25,4-3.74,4-1.6,0-2.58-.53-2.94-1.6-.36-1.07-.71-4.23-1.07-9.48-.36-5.25-.53-7.25-.53-6.01-.36-3.02-.98-4.89-1.87-5.61-1.25-1.42-5.43-2.14-12.55-2.14Z"/>
  </g>
</svg>